<svg id="visual" viewBox="0 0 900 600" width="900" height="600" xmlns="http://www.w3.org/2000/svg" xmlns:xlink="http://www.w3.org/1999/xlink" version="1.1"><rect x="0" y="0" width="900" height="600" fill="#ffffff"></rect><g transform="translate(46.736798116882426 117.03979838490875)"><path d="M301.4 -379.7C441.2 -241.8 640.1 -194.9 652.5 -116.3C664.9 -37.7 490.8 72.6 393.4 213.9C296 355.2 275.4 527.7 192 581.3C108.6 634.9 -37.5 569.8 -201.8 523.4C-366.1 477.1 -548.5 449.5 -647.2 342.6C-746 235.7 -761 49.4 -735.9 -136.2C-710.8 -321.8 -645.6 -506.8 -516.3 -646.5C-387 -786.2 -193.5 -880.6 -56.4 -813.4C80.8 -746.3 161.6 -517.5 301.4 -379.7" fill="#ff0066"></path></g></svg>