<?xml version="1.0" standalone="no"?>
<svg viewBox="0 0 200 200" xmlns="http://www.w3.org/2000/svg">
  <path fill="#FF0066" d="M36.3,-54.9C50.7,-54.7,68.2,-52.1,71.9,-42.6C75.6,-33,65.3,-16.5,64.7,-0.4C64,15.8,73.1,31.6,68.8,40.1C64.5,48.5,46.9,49.7,33.3,57.9C19.6,66.1,9.8,81.3,-1.4,83.8C-12.6,86.2,-25.3,75.9,-35.3,65.6C-45.3,55.3,-52.7,45,-62.9,34.1C-73.1,23.2,-86,11.6,-90.1,-2.4C-94.3,-16.4,-89.7,-32.7,-76.6,-38.7C-63.6,-44.6,-42.1,-40.2,-27.9,-40.4C-13.7,-40.6,-6.9,-45.6,2.1,-49.2C11,-52.8,22,-55,36.3,-54.9Z" transform="translate(100 100)" />
</svg>
